<?xml version="1.0" encoding="UTF-8"?>
<svg id="Ebene_2" data-name="Ebene 2" xmlns="http://www.w3.org/2000/svg" viewBox="0 0 1229.93 222.5">
  <defs>
    <style>
      .cls-1 {
        fill: #fff;
        stroke-width: 0px;
      }
    </style>
  </defs>
  <g id="Ebene_1-2" data-name="Ebene 1">
    <g>
      <polygon class="cls-1" points="387.01 106.06 366.94 106.06 366.94 173.43 193.5 0 92.17 101.44 106.57 115.84 193.5 28.81 274.98 110.28 274.98 173.14 193.5 91.66 83.36 202.31 20 202.3 20 106.06 0 106.06 0 222.31 91.8 222.31 193.5 120.47 294.97 222.31 294.97 130.65 387.01 222.31 387.01 106.06"/>
      <g>
        <path class="cls-1" d="M436.29,106.19v73.24l66.94-73.24h11.6l-48.55,52.86,50.37,63.13h-11.6l-45.07-56.17-23.69,25.85v30.32h-9.28v-115.98h9.28Z"/>
        <path class="cls-1" d="M561.55,222.18c-8.18,0-15.66-2.01-22.45-6.05-6.79-4.03-12.15-9.53-16.07-16.48-3.92-6.96-5.88-14.58-5.88-22.86s1.96-15.71,5.88-22.62c3.92-6.9,9.28-12.4,16.07-16.49,6.79-4.08,14.27-6.13,22.45-6.13s15.02,1.99,21.54,5.97c6.52,3.97,11.49,9.28,14.91,15.91v-20.38h9.11v89.46h-9.11v-22.19c-3.42,6.63-8.39,11.93-14.91,15.91-6.52,3.98-13.7,5.97-21.54,5.97ZM562.04,213.73c6.63,0,12.73-1.66,18.31-4.97,5.58-3.31,9.97-7.79,13.17-13.42,3.2-5.63,4.8-11.82,4.8-18.56s-1.63-12.62-4.89-18.31c-3.26-5.69-7.65-10.19-13.17-13.5-5.52-3.31-11.6-4.97-18.23-4.97s-12.7,1.66-18.23,4.97c-5.53,3.31-9.89,7.79-13.09,13.42-3.21,5.63-4.81,11.76-4.81,18.39s1.6,13.09,4.81,18.72c3.2,5.63,7.56,10.08,13.09,13.34,5.52,3.26,11.6,4.89,18.23,4.89Z"/>
        <path class="cls-1" d="M633.12,117.79c-2.1,0-3.87-.72-5.3-2.16-1.44-1.43-2.16-3.2-2.16-5.3s.72-3.84,2.16-5.22c1.43-1.38,3.2-2.07,5.3-2.07,2.21,0,4.03.69,5.47,2.07,1.43,1.38,2.15,3.12,2.15,5.22s-.72,3.87-2.15,5.3-3.26,2.16-5.47,2.16ZM628.49,134.36h9.11v87.82h-9.11v-87.82Z"/>
        <path class="cls-1" d="M695.09,222.18c-7.4,0-14.53-1.38-21.37-4.14-6.85-2.76-12.54-6.24-17.07-10.44v-10.6c4.2,4.86,9.83,8.92,16.9,12.18,7.07,3.26,14.25,4.89,21.54,4.89,4.42,0,8.42-.72,12.01-2.16,3.59-1.43,6.46-3.37,8.62-5.8,2.15-2.43,3.23-5.19,3.23-8.29,0-3.97-2.18-7.51-6.54-10.6-4.37-3.09-11.24-5.52-20.63-7.29-12.15-2.21-21.02-5.05-26.59-8.53-5.58-3.48-8.37-8.53-8.37-15.16,0-5.08,1.6-9.53,4.8-13.34,3.2-3.81,7.43-6.65,12.67-8.53,5.25-1.88,10.91-2.82,16.98-2.82,6.85,0,13.28,1.11,19.3,3.31,6.02,2.21,11.07,4.97,15.16,8.28v9.45c-5.19-4.09-10.74-7.26-16.65-9.53-5.91-2.26-11.85-3.4-17.81-3.4-4.31,0-8.39.66-12.26,1.99-3.87,1.33-6.99,3.23-9.36,5.72-2.37,2.49-3.56,5.44-3.56,8.86,0,3.65,1.44,6.52,4.31,8.62,2.87,2.1,7.4,3.81,13.59,5.14,1.88.56,3.84,1.02,5.88,1.41,2.04.39,4.11.8,6.21,1.24,11.38,2.32,19.55,5.55,24.52,9.69,4.97,4.14,7.46,9.31,7.46,15.49.11,7.62-2.98,13.59-9.28,17.9-6.29,4.31-14.19,6.46-23.69,6.46Z"/>
        <path class="cls-1" d="M785.23,222.18c-8.29,0-15.82-2.01-22.62-6.05-6.79-4.03-12.18-9.53-16.16-16.48-3.98-6.96-5.97-14.58-5.97-22.86s1.99-15.71,5.97-22.62c3.98-6.9,9.39-12.4,16.24-16.49,6.85-4.08,14.36-6.13,22.54-6.13,7.73,0,14.8,1.8,21.21,5.38,6.4,3.59,11.62,8.48,15.66,14.67,4.03,6.19,6.43,12.98,7.21,20.38.44,2.54.5,5.25.16,8.12h-79.86c.33,6.41,2.16,12.18,5.47,17.31,3.31,5.14,7.62,9.14,12.92,12.01,5.3,2.87,11.04,4.31,17.23,4.31,6.63,0,12.76-1.57,18.39-4.72,5.63-3.15,10.05-7.37,13.26-12.67l8.78,1.33c-3.65,7.4-9.11,13.34-16.4,17.81-7.29,4.47-15.3,6.71-24.02,6.71ZM820.19,172.47c-.56-5.97-2.4-11.43-5.55-16.4-3.15-4.97-7.29-8.89-12.43-11.76-5.14-2.87-10.8-4.31-16.98-4.31s-12.07,1.44-17.32,4.31c-5.25,2.87-9.47,6.79-12.67,11.76-3.2,4.97-5.08,10.44-5.63,16.4h70.59Z"/>
        <path class="cls-1" d="M844.05,134.36h8.95v20.05c2.87-7.73,7.65-13.42,14.33-17.07,6.68-3.65,14.61-4.69,23.78-3.15v9.44c-7.07-1.55-13.53-1.13-19.39,1.24-5.86,2.38-10.44,6.44-13.75,12.18-3.31,5.74-4.97,12.87-4.97,21.37v43.74h-8.95v-87.82Z"/>
        <path class="cls-1" d="M914.3,104.54h8.12v109.85h64.45v7.79h-72.57v-117.64Z"/>
        <path class="cls-1" d="M1099.95,222.18h9.11l-49.71-122.78h-.66l-49.71,122.78h8.12l15.59-38.94h51.93l15.33,38.94ZM1035.74,175.62l23.13-57.78,22.75,57.78h-45.88Z"/>
        <polygon class="cls-1" points="1222.15 100.56 1222.31 201.06 1131.68 100.73 1131.18 100.73 1131.18 222.24 1139.14 222.24 1138.98 121.52 1229.6 222.24 1229.93 222.24 1229.93 100.56 1222.15 100.56"/>
      </g>
    </g>
  </g>
</svg>