<?xml version="1.0" encoding="UTF-8"?>
<svg id="Ebene_2" data-name="Ebene 2" xmlns="http://www.w3.org/2000/svg" viewBox="0 0 387.01 318.58">
  <defs>
    <style>
      .cls-1 {
        fill: #fff;
        stroke-width: 0px;
      }
    </style>
  </defs>
  <g id="Ebene_1-2" data-name="Ebene 1">
    <g>
      <polygon class="cls-1" points="387.01 106.06 366.94 106.06 366.94 173.43 193.5 0 92.17 101.44 106.57 115.84 193.5 28.81 274.98 110.28 274.98 173.14 193.5 91.66 83.36 202.31 20 202.3 20 106.06 0 106.06 0 222.31 91.8 222.31 193.5 120.47 294.97 222.31 294.97 130.65 387.01 222.31 387.01 106.06"/>
      <path class="cls-1" d="M4.48,262.53v35.3l32.26-35.3h5.59l-23.4,25.48,24.28,30.43h-5.59l-21.72-27.07-11.42,12.46v14.61H0v-55.9h4.47Z"/>
      <path class="cls-1" d="M64.85,318.43c-3.94,0-7.55-.97-10.82-2.92-3.27-1.94-5.86-4.59-7.75-7.95-1.89-3.35-2.83-7.03-2.83-11.02s.94-7.57,2.83-10.9c1.89-3.33,4.47-5.98,7.75-7.95,3.27-1.97,6.88-2.95,10.82-2.95s7.24.96,10.38,2.88c3.14,1.92,5.54,4.47,7.19,7.67v-9.82h4.39v43.12h-4.39v-10.7c-1.65,3.19-4.05,5.75-7.19,7.67-3.14,1.92-6.6,2.88-10.38,2.88ZM65.09,314.36c3.19,0,6.14-.8,8.82-2.4,2.69-1.6,4.8-3.75,6.35-6.47,1.54-2.72,2.32-5.7,2.32-8.94s-.79-6.08-2.36-8.82c-1.57-2.74-3.69-4.91-6.35-6.51-2.66-1.6-5.59-2.4-8.78-2.4s-6.12.8-8.78,2.4c-2.66,1.6-4.77,3.75-6.31,6.47-1.55,2.72-2.32,5.67-2.32,8.86s.77,6.31,2.32,9.02c1.54,2.72,3.65,4.86,6.31,6.43,2.66,1.57,5.59,2.36,8.78,2.36Z"/>
      <path class="cls-1" d="M99.35,268.12c-1.01,0-1.86-.35-2.55-1.04-.69-.69-1.04-1.54-1.04-2.55s.35-1.85,1.04-2.52c.69-.67,1.54-1,2.55-1,1.07,0,1.94.33,2.64,1,.69.67,1.04,1.5,1.04,2.52s-.35,1.86-1.04,2.55-1.57,1.04-2.64,1.04ZM97.12,276.1h4.39v42.33h-4.39v-42.33Z"/>
      <path class="cls-1" d="M129.22,318.43c-3.57,0-7-.67-10.3-2-3.3-1.33-6.04-3.01-8.23-5.03v-5.11c2.02,2.34,4.74,4.3,8.15,5.87,3.41,1.57,6.87,2.36,10.38,2.36,2.13,0,4.06-.35,5.79-1.04,1.73-.69,3.11-1.62,4.15-2.79,1.04-1.17,1.56-2.5,1.56-3.99,0-1.92-1.05-3.62-3.15-5.11-2.1-1.49-5.42-2.66-9.94-3.51-5.86-1.06-10.13-2.44-12.82-4.11-2.69-1.68-4.03-4.11-4.03-7.31,0-2.45.77-4.59,2.32-6.43,1.54-1.84,3.58-3.21,6.11-4.11,2.53-.9,5.26-1.36,8.19-1.36,3.3,0,6.4.53,9.3,1.6,2.9,1.07,5.34,2.4,7.31,3.99v4.55c-2.5-1.97-5.18-3.5-8.03-4.59-2.85-1.09-5.71-1.64-8.59-1.64-2.08,0-4.05.32-5.91.96-1.86.64-3.37,1.56-4.51,2.75-1.14,1.2-1.72,2.62-1.72,4.27,0,1.76.69,3.14,2.08,4.15,1.38,1.01,3.57,1.84,6.55,2.48.9.27,1.85.49,2.83.68.98.19,1.98.39,2.99.6,5.48,1.12,9.42,2.68,11.82,4.67,2.4,2,3.59,4.49,3.59,7.47.05,3.67-1.44,6.55-4.47,8.63-3.03,2.08-6.84,3.11-11.42,3.11Z"/>
      <path class="cls-1" d="M172.66,318.43c-3.99,0-7.63-.97-10.9-2.92-3.27-1.94-5.87-4.59-7.79-7.95s-2.88-7.03-2.88-11.02.96-7.57,2.88-10.9c1.92-3.33,4.52-5.98,7.83-7.95,3.3-1.97,6.92-2.95,10.86-2.95,3.73,0,7.13.87,10.22,2.59,3.09,1.73,5.6,4.09,7.55,7.07,1.94,2.98,3.1,6.26,3.47,9.82.21,1.23.24,2.53.08,3.91h-38.49c.16,3.09,1.04,5.87,2.64,8.35,1.6,2.48,3.67,4.41,6.23,5.79,2.56,1.38,5.32,2.08,8.31,2.08,3.19,0,6.15-.76,8.86-2.28,2.72-1.52,4.84-3.55,6.39-6.11l4.23.64c-1.76,3.57-4.39,6.43-7.91,8.58-3.51,2.16-7.37,3.23-11.58,3.23ZM189.51,294.47c-.27-2.88-1.16-5.51-2.68-7.91-1.52-2.4-3.51-4.29-5.99-5.67-2.48-1.38-5.2-2.08-8.19-2.08s-5.82.69-8.35,2.08c-2.53,1.38-4.57,3.27-6.11,5.67-1.54,2.4-2.45,5.03-2.72,7.91h34.02Z"/>
      <path class="cls-1" d="M201.01,276.1h4.31v9.66c1.38-3.73,3.69-6.47,6.91-8.23,3.22-1.76,7.04-2.26,11.46-1.52v4.55c-3.41-.74-6.52-.55-9.34.6-2.82,1.15-5.03,3.1-6.63,5.87-1.6,2.77-2.4,6.2-2.4,10.3v21.08h-4.31v-42.33Z"/>
      <path class="cls-1" d="M234.87,261.73h3.91v52.95h31.06v3.75h-34.98v-56.7Z"/>
      <path class="cls-1" d="M324.35,318.43h4.39l-23.96-59.18h-.32l-23.96,59.18h3.91l7.51-18.77h25.03l7.39,18.77ZM293.41,295.99l11.15-27.85,10.96,27.85h-22.11Z"/>
      <polygon class="cls-1" points="383.25 259.81 383.32 308.25 339.64 259.89 339.4 259.89 339.4 318.46 343.24 318.46 343.16 269.91 386.84 318.46 387 318.46 387 259.81 383.25 259.81"/>
    </g>
  </g>
</svg>